<?xml version="1.0" encoding="utf-8"?>
<!-- Generator: Adobe Illustrator 27.5.0, SVG Export Plug-In . SVG Version: 6.00 Build 0)  -->
<svg version="1.1" id="Layer_1" xmlns="http://www.w3.org/2000/svg" xmlns:xlink="http://www.w3.org/1999/xlink" x="0px" y="0px"
	 viewBox="0 0 512 512" style="enable-background:new 0 0 512 512;" xml:space="preserve">
<g>
	<path d="M35.18,171.1c-46.91,46-46.91,122.91,0,169.81L171.1,476.82c46,46.9,122.91,46.9,169.81,0l135.91-135.91
		c46.9-46.9,46.9-123.81,0-169.81L340.91,35.18c-46.9-46.91-123.81-46.91-169.81,0L35.18,171.1z M315.51,315.51
		c-32.9,32.8-86.11,32.8-118.91,0c-32.9-32.9-32.9-86.11,0-118.91c32.8-32.9,86.01-32.9,118.91,0
		C348.31,229.41,348.31,282.61,315.51,315.51z"/>
</g>
</svg>
